<?xml version="1.0" encoding="UTF-8"?>
<svg xmlns="http://www.w3.org/2000/svg" style="display: none;">

    <symbol id="life-icon-search" width="25" height="25" viewBox="0 0 25 25" fill="none">
        <path fill-rule="evenodd" clip-rule="evenodd" d="M19.677 11.1986C19.677 12.7691 19.2474 14.2392 18.4993 15.4979L23.2223 20.2207C23.743 20.7414 23.743 21.5857 23.2223 22.1064L22.3289 22.9998C21.8082 23.5205 20.964 23.5205 20.4433 22.9998L15.7611 18.3176C14.4569 19.1457 12.9096 19.6253 11.2504 19.6253C6.59647 19.6253 2.82373 15.8525 2.82373 11.1986C2.82373 6.54471 6.59647 2.77197 11.2504 2.77197C15.9043 2.77197 19.677 6.54471 19.677 11.1986ZM11.2235 16.5719C14.169 16.5719 16.5568 14.1841 16.5568 11.2386C16.5568 8.2931 14.169 5.90528 11.2235 5.90528C8.27796 5.90528 5.89015 8.2931 5.89015 11.2386C5.89015 14.1841 8.27796 16.5719 11.2235 16.5719Z" fill="#3B6E04"/>
        <circle cx="11.224" cy="11.2386" r="5.33333" fill="#BAE575"/>
        <path d="M8.8243 10.7054C8.8243 12.1782 10.0182 13.3721 11.491 13.3721" stroke="#242424" stroke-width="1.33333" stroke-linecap="round"/>
    </symbol>

    <symbol id="life-icon-bars" width="25" height="25" viewBox="0 0 25 25" fill="none">
        <rect x="3.49089" y="5.36637" width="18.6667" height="14.6667" rx="2" fill="#3B6E04" stroke="#3B6E04" stroke-width="1.33333"/>
        <path d="M7.49097 9.36621H18.1576M7.49097 12.6995H18.1576M7.49097 16.0329H18.1576" stroke="white" stroke-width="1.33333" stroke-linecap="round"/>
    </symbol>

</svg>