<?xml version="1.0" encoding="UTF-8"?>
<svg xmlns="http://www.w3.org/2000/svg" style="display: none;">

    <symbol id="life-icon-search" width="25" height="25" viewBox="0 0 25 25" fill="none">
        <path fill-rule="evenodd" clip-rule="evenodd" d="M19.677 11.1986C19.677 12.7691 19.2474 14.2392 18.4993 15.4979L23.2223 20.2207C23.743 20.7414 23.743 21.5857 23.2223 22.1064L22.3289 22.9998C21.8082 23.5205 20.964 23.5205 20.4433 22.9998L15.7611 18.3176C14.4569 19.1457 12.9096 19.6253 11.2504 19.6253C6.59647 19.6253 2.82373 15.8525 2.82373 11.1986C2.82373 6.54471 6.59647 2.77197 11.2504 2.77197C15.9043 2.77197 19.677 6.54471 19.677 11.1986ZM11.2235 16.5719C14.169 16.5719 16.5568 14.1841 16.5568 11.2386C16.5568 8.2931 14.169 5.90528 11.2235 5.90528C8.27796 5.90528 5.89015 8.2931 5.89015 11.2386C5.89015 14.1841 8.27796 16.5719 11.2235 16.5719Z" fill="#3B6E04"/>
        <circle cx="11.224" cy="11.2386" r="5.33333" fill="#BAE575"/>
        <path d="M8.8243 10.7054C8.8243 12.1782 10.0182 13.3721 11.491 13.3721" stroke="#242424" stroke-width="1.33333" stroke-linecap="round"/>
    </symbol>

    <symbol id="life-icon-bars" width="25" height="25" viewBox="0 0 25 25" fill="none">
        <rect x="3.49089" y="5.36637" width="18.6667" height="14.6667" rx="2" fill="#3B6E04" stroke="#3B6E04" stroke-width="1.33333"/>
        <path d="M7.49097 9.36621H18.1576M7.49097 12.6995H18.1576M7.49097 16.0329H18.1576" stroke="white" stroke-width="1.33333" stroke-linecap="round"/>
    </symbol>

    <symbol id="life-icon-times" viewBox="0 0 12 12" xmlns="http://www.w3.org/2000/svg">
        <path fill-rule="evenodd" clip-rule="evenodd" d="M6 6.89593L10.6661 11.7614C10.9712 12.0795 11.466 12.0795 11.7711 11.7614C12.0763 11.4432 12.0763 10.9273 11.7711 10.6091L8.13229 6.81478L7.3106 6L8.13229 5.18522L11.7711 1.39091C12.0763 1.07272 12.0763 0.556835 11.7711 0.238643C11.466 -0.0795478 10.9712 -0.0795478 10.6661 0.238643L6 5.10407L1.33393 0.238643C1.02877 -0.0795478 0.534019 -0.0795478 0.228865 0.238643C-0.0762885 0.556835 -0.0762885 1.07272 0.228866 1.39091L3.86771 5.18522L4.6894 6L3.86771 6.81478L0.228866 10.6091C-0.0762875 10.9273 -0.0762875 11.4432 0.228867 11.7614C0.534021 12.0795 1.02877 12.0795 1.33393 11.7614L6 6.89593Z" fill="currentColor" />
    </symbol>

</svg>